{
    "asset" : {
        "generator" : "Khronos glTF Blender I/O v3.2.40",
        "version" : "2.0"
    },
    "scene" : 0,
    "scenes" : [
        {
            "name" : "Scene",
            "nodes" : [
                0,
                1,
                2,
                6,
                7,
                8
            ]
        }
    ],
    "nodes" : [
        {
            "mesh" : 0,
            "name" : "haste.001",
            "scale" : [
                1,
                0.0040000081062316895,
                0.05999999865889549
            ],
            "translation" : [
                0,
                0.25916287302970886,
                0
            ]
        },
        {
            "mesh" : 1,
            "name" : "base vertical.001",
            "rotation" : [
                0,
                -0.7071068286895752,
                0.7071068286895752,
                1.1520233300643667e-07
            ],
            "scale" : [
                0.10000002384185791,
                0.0040000081062316895,
                0.30000001192092896
            ],
            "translation" : [
                0,
                0.14719487726688385,
                0.03400000184774399
            ]
        },
        {
            "mesh" : 2,
            "name" : "base horizontal.001",
            "scale" : [
                0.25,
                0.0059999823570251465,
                0.30000001192092896
            ]
        },
        {
            "mesh" : 3,
            "name" : "AP-SP-001-01",
            "translation" : [
                0,
                0.02044612169265747,
                0
            ]
        },
        {
            "mesh" : 4,
            "name" : "AP-SP-001-02",
            "translation" : [
                0,
                -0.000287860631942749,
                0
            ]
        },
        {
            "mesh" : 5,
            "name" : "AP-SP-001-03",
            "translation" : [
                0,
                0.00026658177375793457,
                0
            ]
        },
        {
            "children" : [
                3,
                4,
                5
            ],
            "mesh" : 6,
            "name" : "APC Prop 14x8",
            "translation" : [
                -0.4396490454673767,
                0.2635175585746765,
                0
            ]
        },
        {
            "mesh" : 7,
            "name" : "base vertical.002",
            "rotation" : [
                0,
                -0.7071068286895752,
                0.7071068286895752,
                1.1520233300643667e-07
            ],
            "scale" : [
                0.10000002384185791,
                0.0040000081062316895,
                0.30000001192092896
            ],
            "translation" : [
                0,
                0.14719487726688385,
                -0.03400000184774399
            ]
        },
        {
            "mesh" : 8,
            "name" : "servo",
            "rotation" : [
                0.7071068286895752,
                0,
                0,
                0.7071068286895752
            ],
            "scale" : [
                0.5,
                1,
                0.5
            ],
            "translation" : [
                0,
                0.2690621614456177,
                0.0032093001063913107
            ]
        }
    ],
    "materials" : [
        {
            "doubleSided" : true,
            "name" : "3d-Printed",
            "pbrMetallicRoughness" : {
                "baseColorFactor" : [
                    1,
                    0.6179920434951782,
                    0.38785189390182495,
                    1
                ],
                "metallicFactor" : 0,
                "roughnessFactor" : 0.4000000059604645
            }
        },
        {
            "doubleSided" : true,
            "name" : "Metal",
            "pbrMetallicRoughness" : {
                "baseColorFactor" : [
                    0.800000011920929,
                    0.800000011920929,
                    0.800000011920929,
                    1
                ],
                "metallicFactor" : 0.800000011920929,
                "roughnessFactor" : 0.4000000059604645
            }
        },
        {
            "doubleSided" : true,
            "name" : "Plastic",
            "pbrMetallicRoughness" : {
                "baseColorFactor" : [
                    0.1472444236278534,
                    0.1472444236278534,
                    0.1472444236278534,
                    1
                ],
                "metallicFactor" : 0,
                "roughnessFactor" : 0.4000000059604645
            }
        }
    ],
    "meshes" : [
        {
            "name" : "Cube.004",
            "primitives" : [
                {
                    "attributes" : {
                        "POSITION" : 0,
                        "NORMAL" : 1,
                        "TEXCOORD_0" : 2
                    },
                    "indices" : 3,
                    "material" : 0
                }
            ]
        },
        {
            "name" : "Cube.005",
            "primitives" : [
                {
                    "attributes" : {
                        "POSITION" : 4,
                        "NORMAL" : 5,
                        "TEXCOORD_0" : 6
                    },
                    "indices" : 7,
                    "material" : 0
                }
            ]
        },
        {
            "name" : "Cube.006",
            "primitives" : [
                {
                    "attributes" : {
                        "POSITION" : 8,
                        "NORMAL" : 9,
                        "TEXCOORD_0" : 10
                    },
                    "indices" : 7,
                    "material" : 0
                }
            ]
        },
        {
            "name" : "AP-SP-001-01",
            "primitives" : [
                {
                    "attributes" : {
                        "POSITION" : 11,
                        "NORMAL" : 12
                    },
                    "indices" : 13,
                    "material" : 1
                }
            ]
        },
        {
            "name" : "AP-SP-001-02",
            "primitives" : [
                {
                    "attributes" : {
                        "POSITION" : 14,
                        "NORMAL" : 15
                    },
                    "indices" : 16
                }
            ]
        },
        {
            "name" : "AP-SP-001-03",
            "primitives" : [
                {
                    "attributes" : {
                        "POSITION" : 17,
                        "NORMAL" : 18
                    },
                    "indices" : 19,
                    "material" : 1
                }
            ]
        },
        {
            "name" : "APC Prop 14x8",
            "primitives" : [
                {
                    "attributes" : {
                        "POSITION" : 20,
                        "NORMAL" : 21
                    },
                    "indices" : 22,
                    "material" : 2
                }
            ]
        },
        {
            "name" : "Cube.007",
            "primitives" : [
                {
                    "attributes" : {
                        "POSITION" : 23,
                        "NORMAL" : 24,
                        "TEXCOORD_0" : 25
                    },
                    "indices" : 7,
                    "material" : 0
                }
            ]
        },
        {
            "name" : "Cylinder",
            "primitives" : [
                {
                    "attributes" : {
                        "POSITION" : 26,
                        "NORMAL" : 27,
                        "TEXCOORD_0" : 28
                    },
                    "indices" : 29
                }
            ]
        }
    ],
    "accessors" : [
        {
            "bufferView" : 0,
            "componentType" : 5126,
            "count" : 384,
            "max" : [
                0.5,
                6.0326690673828125,
                0.5
            ],
            "min" : [
                -0.5,
                -0.5,
                -0.5
            ],
            "type" : "VEC3"
        },
        {
            "bufferView" : 1,
            "componentType" : 5126,
            "count" : 384,
            "type" : "VEC3"
        },
        {
            "bufferView" : 2,
            "componentType" : 5126,
            "count" : 384,
            "type" : "VEC2"
        },
        {
            "bufferView" : 3,
            "componentType" : 5123,
            "count" : 732,
            "type" : "SCALAR"
        },
        {
            "bufferView" : 4,
            "componentType" : 5126,
            "count" : 24,
            "max" : [
                0.5,
                0.5,
                0.5
            ],
            "min" : [
                -0.5,
                -0.5,
                -0.5
            ],
            "type" : "VEC3"
        },
        {
            "bufferView" : 5,
            "componentType" : 5126,
            "count" : 24,
            "type" : "VEC3"
        },
        {
            "bufferView" : 6,
            "componentType" : 5126,
            "count" : 24,
            "type" : "VEC2"
        },
        {
            "bufferView" : 7,
            "componentType" : 5123,
            "count" : 36,
            "type" : "SCALAR"
        },
        {
            "bufferView" : 8,
            "componentType" : 5126,
            "count" : 24,
            "max" : [
                0.5,
                0.5,
                0.5
            ],
            "min" : [
                -0.5,
                -0.5,
                -0.5
            ],
            "type" : "VEC3"
        },
        {
            "bufferView" : 9,
            "componentType" : 5126,
            "count" : 24,
            "type" : "VEC3"
        },
        {
            "bufferView" : 10,
            "componentType" : 5126,
            "count" : 24,
            "type" : "VEC2"
        },
        {
            "bufferView" : 11,
            "componentType" : 5126,
            "count" : 9693,
            "max" : [
                0.012352589517831802,
                0.029705936089158058,
                0.012376158498227596
            ],
            "min" : [
                -0.012352589517831802,
                0,
                -0.012376158498227596
            ],
            "type" : "VEC3"
        },
        {
            "bufferView" : 12,
            "componentType" : 5126,
            "count" : 9693,
            "type" : "VEC3"
        },
        {
            "bufferView" : 13,
            "componentType" : 5123,
            "count" : 10080,
            "type" : "SCALAR"
        },
        {
            "bufferView" : 14,
            "componentType" : 5126,
            "count" : 4911,
            "max" : [
                0.006767111364752054,
                0.04455890506505966,
                0.006763001903891563
            ],
            "min" : [
                -0.006767111364752054,
                0,
                -0.006763001903891563
            ],
            "type" : "VEC3"
        },
        {
            "bufferView" : 15,
            "componentType" : 5126,
            "count" : 4911,
            "type" : "VEC3"
        },
        {
            "bufferView" : 16,
            "componentType" : 5123,
            "count" : 5466,
            "type" : "SCALAR"
        },
        {
            "bufferView" : 17,
            "componentType" : 5126,
            "count" : 10707,
            "max" : [
                0.01093345694243908,
                0.011662377044558525,
                0.010932378470897675
            ],
            "min" : [
                -0.01093345694243908,
                0,
                -0.010932378470897675
            ],
            "type" : "VEC3"
        },
        {
            "bufferView" : 18,
            "componentType" : 5126,
            "count" : 10707,
            "type" : "VEC3"
        },
        {
            "bufferView" : 19,
            "componentType" : 5123,
            "count" : 10860,
            "type" : "SCALAR"
        },
        {
            "bufferView" : 20,
            "componentType" : 5126,
            "count" : 41770,
            "max" : [
                0.16620849072933197,
                0.02353277988731861,
                0.0166859682649374
            ],
            "min" : [
                -0.16488082706928253,
                0.0054994854144752026,
                -0.01691317930817604
            ],
            "type" : "VEC3"
        },
        {
            "bufferView" : 21,
            "componentType" : 5126,
            "count" : 41770,
            "type" : "VEC3"
        },
        {
            "bufferView" : 22,
            "componentType" : 5123,
            "count" : 42480,
            "type" : "SCALAR"
        },
        {
            "bufferView" : 23,
            "componentType" : 5126,
            "count" : 24,
            "max" : [
                0.5,
                0.5,
                0.5
            ],
            "min" : [
                -0.5,
                -0.5,
                -0.5
            ],
            "type" : "VEC3"
        },
        {
            "bufferView" : 24,
            "componentType" : 5126,
            "count" : 24,
            "type" : "VEC3"
        },
        {
            "bufferView" : 25,
            "componentType" : 5126,
            "count" : 24,
            "type" : "VEC2"
        },
        {
            "bufferView" : 26,
            "componentType" : 5126,
            "count" : 330,
            "max" : [
                0.03709784522652626,
                0.03799999877810478,
                0.03709786385297775
            ],
            "min" : [
                -0.03709784895181656,
                -0.050235453993082047,
                -0.03709782660007477
            ],
            "type" : "VEC3"
        },
        {
            "bufferView" : 27,
            "componentType" : 5126,
            "count" : 330,
            "type" : "VEC3"
        },
        {
            "bufferView" : 28,
            "componentType" : 5126,
            "count" : 330,
            "type" : "VEC2"
        },
        {
            "bufferView" : 29,
            "componentType" : 5123,
            "count" : 564,
            "type" : "SCALAR"
        }
    ],
    "bufferViews" : [
        {
            "buffer" : 0,
            "byteLength" : 4608,
            "byteOffset" : 0
        },
        {
            "buffer" : 0,
            "byteLength" : 4608,
            "byteOffset" : 4608
        },
        {
            "buffer" : 0,
            "byteLength" : 3072,
            "byteOffset" : 9216
        },
        {
            "buffer" : 0,
            "byteLength" : 1464,
            "byteOffset" : 12288
        },
        {
            "buffer" : 0,
            "byteLength" : 288,
            "byteOffset" : 13752
        },
        {
            "buffer" : 0,
            "byteLength" : 288,
            "byteOffset" : 14040
        },
        {
            "buffer" : 0,
            "byteLength" : 192,
            "byteOffset" : 14328
        },
        {
            "buffer" : 0,
            "byteLength" : 72,
            "byteOffset" : 14520
        },
        {
            "buffer" : 0,
            "byteLength" : 288,
            "byteOffset" : 14592
        },
        {
            "buffer" : 0,
            "byteLength" : 288,
            "byteOffset" : 14880
        },
        {
            "buffer" : 0,
            "byteLength" : 192,
            "byteOffset" : 15168
        },
        {
            "buffer" : 0,
            "byteLength" : 116316,
            "byteOffset" : 15360
        },
        {
            "buffer" : 0,
            "byteLength" : 116316,
            "byteOffset" : 131676
        },
        {
            "buffer" : 0,
            "byteLength" : 20160,
            "byteOffset" : 247992
        },
        {
            "buffer" : 0,
            "byteLength" : 58932,
            "byteOffset" : 268152
        },
        {
            "buffer" : 0,
            "byteLength" : 58932,
            "byteOffset" : 327084
        },
        {
            "buffer" : 0,
            "byteLength" : 10932,
            "byteOffset" : 386016
        },
        {
            "buffer" : 0,
            "byteLength" : 128484,
            "byteOffset" : 396948
        },
        {
            "buffer" : 0,
            "byteLength" : 128484,
            "byteOffset" : 525432
        },
        {
            "buffer" : 0,
            "byteLength" : 21720,
            "byteOffset" : 653916
        },
        {
            "buffer" : 0,
            "byteLength" : 501240,
            "byteOffset" : 675636
        },
        {
            "buffer" : 0,
            "byteLength" : 501240,
            "byteOffset" : 1176876
        },
        {
            "buffer" : 0,
            "byteLength" : 84960,
            "byteOffset" : 1678116
        },
        {
            "buffer" : 0,
            "byteLength" : 288,
            "byteOffset" : 1763076
        },
        {
            "buffer" : 0,
            "byteLength" : 288,
            "byteOffset" : 1763364
        },
        {
            "buffer" : 0,
            "byteLength" : 192,
            "byteOffset" : 1763652
        },
        {
            "buffer" : 0,
            "byteLength" : 3960,
            "byteOffset" : 1763844
        },
        {
            "buffer" : 0,
            "byteLength" : 3960,
            "byteOffset" : 1767804
        },
        {
            "buffer" : 0,
            "byteLength" : 2640,
            "byteOffset" : 1771764
        },
        {
            "buffer" : 0,
            "byteLength" : 1128,
            "byteOffset" : 1774404
        }
    ],
    "buffers" : [
        {
            "byteLength" : 1775532,
            "uri" : "data:application/octet-stream;base64,"
        }
    ]
}
